<?xml version="1.0" encoding="UTF-8"?>
<svg id="Layer_1" xmlns="http://www.w3.org/2000/svg" version="1.1" viewBox="0 0 300 150">
  <!-- Generator: Adobe Illustrator 29.7.1, SVG Export Plug-In . SVG Version: 2.1.1 Build 8)  -->
  <defs>
    <style>
      .st0 {
        fill: #000064;
      }
    </style>
  </defs>
  <path class="st0" d="M291.3,52.9v1h-2.2v5.6h-1.1v-5.6h-2.2v-1h5.5ZM292.1,52.9h1.5l1.9,5.3,1.9-5.3h1.5v6.7h-1.1v-5l-1.8,4.9h-1l-1.8-4.9v5h-1.1v-6.7h0Z"/>
  <path class="st0" d="M48.1,54.1h3.3v-25.2h9.5v-2.9h-22.3v2.9h9.5v25.2Z"/>
  <path class="st0" d="M69.2,41.8h6.7l8.6,12.3h3.9l-9-12.4c5.2-.4,7.9-3.6,7.9-7.8,0-4.4-3.2-7.9-9.1-7.9h-12.3v28.1h3.3v-12.3ZM69.2,28.9h9c3.8,0,6,2,6,5s-2.2,5-6,5h-9v-10Z"/>
  <path class="st0" d="M103.7,54.7c6.2,0,10.2-3.8,10.2-10.3v-18.4h-3.4v18.2c0,4.5-2.2,7.5-6.9,7.5s-6.9-2.9-6.9-7.5v-18.2h-3.3v18.4c0,6.5,3.9,10.3,10.2,10.3h0Z"/>
  <path class="st0" d="M140.7,51.2h-15.7v-9.9h14.5v-2.9h-14.5v-9.4h15.6v-2.9h-18.9v28.1h19v-2.9Z"/>
  <path class="st0" d="M168.1,45.7c0-2.8-1.8-5.4-4.3-6.4,1.9-1.1,3.3-3.4,3.3-5.4,0-5.2-3.9-7.8-9.5-7.8h-11.4v28.1h11.8c6.3,0,10.1-3,10.1-8.5ZM152.3,31.3h5.3c2.2,0,3.4,1.1,3.4,2.9s-1.2,3-3.5,3h-5.2v-5.9h0ZM152.2,42.3h6.2c2.1,0,3.6,1.3,3.6,3.3,0,2-1.2,3.3-3.8,3.3h-6v-6.6Z"/>
  <path class="st0" d="M193,48.6h-13.2v-22.6h-6.1v28.1h19.3v-5.5Z"/>
  <path class="st0" d="M207.9,54.7c6.7,0,11-3.7,11-10.2v-18.5h-6.1v18.2c0,3.2-1.6,5.3-4.9,5.3s-4.9-2-4.9-5.3v-18.2h-6v18.5c0,6.4,4.1,10.2,11,10.2Z"/>
  <path class="st0" d="M245.6,48.8h-14.1v-6.2h13.1v-5.2h-13.1v-6.2h14.1v-5.3h-20.2v28.1h20.2v-5.3Z"/>
  <path class="st0" d="M24.3,43.2l-12.9,7.4v14.4H1v11h10.4v29.9c0,6.5,1.6,11.2,4.9,14.1,3.3,2.9,8.2,4.4,14.7,4.4s2.8-.1,4.8-.3c2-.2,3.4-.5,4.2-.9v-11.3c-1.1.2-2.4.4-3.7.6-1.3.2-2.5.3-3.4.3-3.1,0-5.4-.6-6.7-1.7-1.3-1.2-2-3.4-2-6.8v-28.2h16.6v-11h-16.6v-21.8h0Z"/>
  <path class="st0" d="M66.5,66.1c-3,1.6-5.4,4.4-7.5,8.3v-9.4h-12.9v57.9h12.9v-28c0-6.2,1.4-10.9,4.1-14.1,2.7-3.2,6.4-4.7,11-4.7s4.4.3,6.6,1v-12.7c-1.4-.5-3.1-.8-5.2-.8-3.1,0-6.2.8-9.1,2.4h0Z"/>
  <path class="st0" d="M131.2,72.1c-5.1-6-11.8-9-20.3-9s-10.9,1.4-15.4,4.1c-4.5,2.7-8,6.4-10.4,11.1-2.5,4.7-3.7,10-3.7,15.8s1.3,10.9,3.8,15.6c2.5,4.7,6,8.4,10.4,11,4.4,2.7,9.5,4,15.3,4s8.6-.9,12.2-2.6c3.6-1.7,5.8-4.1,8.1-7.2v8.2h12.9v-58h-12.9v7h0ZM129.2,103.8c-1.6,2.8-3.8,5.1-6.6,6.7-2.8,1.6-5.9,2.4-9.4,2.4-5.5,0-9.9-1.8-13.3-5.3-3.4-3.5-5.2-8.1-5.2-13.6s1.7-10.3,5.2-13.9c3.4-3.6,7.9-5.4,13.3-5.4s6.6.8,9.4,2.4c2.8,1.6,5,3.9,6.6,6.9,1.6,3,2.4,6.3,2.4,10s-.8,7-2.4,9.8Z"/>
  <path class="st0" d="M195.6,65.1l-16.8,43.2-16.8-43.2h-14.2l24.2,57.9h13.7l23.9-57.9h-13.9Z"/>
  <path class="st0" d="M250.3,66.8c-4.2-2.5-9.1-3.7-14.7-3.7s-10.5,1.3-15,4c-4.5,2.7-8,6.4-10.5,11.1-2.5,4.8-3.8,10.1-3.8,15.9s1.2,11.2,3.7,15.9c2.5,4.6,6,8.2,10.5,10.8,4.5,2.6,9.8,3.8,15.9,3.8s10.7-1.1,15.3-3.3c4.6-2.2,8.2-5.4,10.9-9.6l-9.3-8.2c-1.6,3.6-3.7,6.2-6.4,7.9-2.7,1.7-6.1,2.5-10.2,2.5s-8.4-1.3-11.4-3.9c-3-2.6-4.8-6.6-5.4-11.9h43.3c.2-2,.3-3.7.3-5.1,0-5.9-1.1-11.1-3.4-15.6-2.3-4.5-5.5-8-9.8-10.5h0ZM219.9,88.7c.7-4.8,2.5-8.5,5.3-11,2.8-2.5,6.1-3.8,10.1-3.8s7.9,1.3,10.4,4c2.5,2.7,3.8,6.3,3.8,10.8h-29.6Z"/>
  <path class="st0" d="M269.3,43.2v79.8h12.9V50.5l-12.9-7.3Z"/>
</svg>