<?xml version="1.0" encoding="utf-8"?>
<!-- Generator: Adobe Illustrator 26.5.0, SVG Export Plug-In . SVG Version: 6.00 Build 0)  -->
<svg version="1.1" id="Layer_1" xmlns="http://www.w3.org/2000/svg" xmlns:xlink="http://www.w3.org/1999/xlink" x="0px" y="0px"
	 viewBox="0 0 96 96" style="enable-background:new 0 0 96 96;" xml:space="preserve">
<style type="text/css">
	.st0{fill:#0000AA;}
</style>
<g>
	<path class="st0" d="M93.1,41v0.3h-0.7v1.8H92v-1.8h-0.7V41H93.1z M93.4,41h0.5l0.6,1.7l0.6-1.7h0.5v2.1h-0.4v-1.6l-0.6,1.6h-0.3
		l-0.6-1.6v1.6h-0.4L93.4,41L93.4,41z"/>
	<g>
		<polygon class="st0" points="15.5,41.4 16.5,41.4 16.5,33.3 19.5,33.3 19.5,32.3 12.4,32.3 12.4,33.3 15.5,33.3 		"/>
		<path class="st0" d="M22.2,37.4h2.1l2.7,4h1.2l-2.9-4c1.6-0.1,2.5-1.2,2.5-2.5c0-1.4-1-2.5-2.9-2.5h-3.9v9h1L22.2,37.4L22.2,37.4z
			 M22.2,33.3h2.9c1.2,0,1.9,0.6,1.9,1.6c0,1-0.7,1.6-1.9,1.6h-2.9V33.3z"/>
		<path class="st0" d="M33.2,41.5c2,0,3.3-1.2,3.3-3.3v-5.9h-1.1v5.8c0,1.5-0.7,2.4-2.2,2.4c-1.5,0-2.2-0.9-2.2-2.4v-5.8h-1v5.9
			C29.9,40.3,31.2,41.5,33.2,41.5L33.2,41.5z"/>
		<polygon class="st0" points="45,40.4 40,40.4 40,37.2 44.6,37.2 44.6,36.3 40,36.3 40,33.3 45,33.3 45,32.3 39,32.3 39,41.4 
			45,41.4 		"/>
		<path class="st0" d="M53.8,38.7c0-0.9-0.6-1.7-1.4-2.1c0.6-0.4,1-1.1,1-1.7c0-1.7-1.2-2.5-3-2.5h-3.6v9h3.8
			C52.6,41.4,53.8,40.4,53.8,38.7z M48.7,34h1.7c0.7,0,1.1,0.4,1.1,0.9s-0.4,1-1.1,1h-1.7L48.7,34L48.7,34z M48.7,37.6h2
			c0.7,0,1.1,0.4,1.1,1.1c0,0.6-0.4,1.1-1.2,1.1h-1.9C48.7,39.7,48.7,37.6,48.7,37.6z"/>
		<polygon class="st0" points="61.7,39.6 57.5,39.6 57.5,32.3 55.6,32.3 55.6,41.4 61.7,41.4 		"/>
		<path class="st0" d="M66.5,41.5c2.1,0,3.5-1.2,3.5-3.3v-5.9h-2v5.8c0,1-0.5,1.7-1.6,1.7s-1.6-0.7-1.6-1.7v-5.8H63v5.9
			C63,40.3,64.3,41.5,66.5,41.5L66.5,41.5z"/>
		<polygon class="st0" points="78.5,39.7 74,39.7 74,37.7 78.2,37.7 78.2,36 74,36 74,34 78.5,34 78.5,32.3 72.1,32.3 72.1,41.4 
			78.5,41.4 		"/>
		<path class="st0" d="M7.9,37.9l-4.1,2.4v4.6H0.4v3.5h3.3V58c0,2.1,0.5,3.6,1.6,4.5c1,0.9,2.6,1.4,4.7,1.4c0.4,0,0.9,0,1.5-0.1
			c0.6-0.1,1.1-0.2,1.3-0.3V60c-0.4,0.1-0.8,0.1-1.2,0.2c-0.4,0.1-0.8,0.1-1.1,0.1c-1,0-1.7-0.2-2.1-0.6c-0.4-0.4-0.6-1.1-0.6-2.2
			v-9.1h5.3v-3.5H7.9L7.9,37.9L7.9,37.9z"/>
		<path class="st0" d="M21.3,45.2c-0.9,0.5-1.7,1.4-2.4,2.7v-3h-4.1v18.6H19v-9c0-2,0.4-3.5,1.3-4.5c0.9-1,2-1.5,3.5-1.5
			c0.7,0,1.4,0.1,2.1,0.3v-4.1c-0.5-0.2-1-0.3-1.6-0.3C23.3,44.5,22.3,44.7,21.3,45.2L21.3,45.2z"/>
		<path class="st0" d="M42,47.1c-1.6-1.9-3.8-2.9-6.5-2.9c-1.8,0-3.5,0.4-4.9,1.3c-1.4,0.9-2.5,2.1-3.3,3.6
			c-0.8,1.5-1.2,3.2-1.2,5.1c0,1.9,0.4,3.5,1.2,5c0.8,1.5,1.9,2.7,3.3,3.5c1.4,0.9,3,1.3,4.9,1.3c1.5,0,2.8-0.3,3.9-0.8
			c1.1-0.6,1.9-1.3,2.6-2.3v2.6h4.1V44.9H42V47.1L42,47.1z M41.4,57.3c-0.5,0.9-1.2,1.6-2.1,2.1c-0.9,0.5-1.9,0.8-3,0.8
			c-1.7,0-3.2-0.6-4.3-1.7c-1.1-1.1-1.6-2.6-1.6-4.4c0-1.8,0.5-3.3,1.6-4.5c1.1-1.2,2.5-1.7,4.3-1.7c1.1,0,2.1,0.3,3,0.8
			c0.9,0.5,1.6,1.3,2.1,2.2c0.5,1,0.8,2,0.8,3.2C42.1,55.4,41.9,56.4,41.4,57.3L41.4,57.3z"/>
		<polygon class="st0" points="62.6,44.9 57.2,58.8 51.8,44.9 47.3,44.9 55,63.5 59.4,63.5 67,44.9 		"/>
		<path class="st0" d="M80,45.4c-1.3-0.8-2.9-1.2-4.7-1.2s-3.4,0.4-4.8,1.3c-1.4,0.9-2.5,2.1-3.3,3.6c-0.8,1.5-1.2,3.2-1.2,5.1
			s0.4,3.6,1.2,5.1c0.8,1.5,1.9,2.6,3.3,3.5c1.4,0.8,3.1,1.2,5.1,1.2c1.8,0,3.4-0.4,4.9-1.1c1.5-0.7,2.6-1.7,3.5-3.1l-3-2.6
			c-0.5,1.1-1.2,2-2,2.5c-0.9,0.5-1.9,0.8-3.3,0.8c-1.5,0-2.7-0.4-3.6-1.3c-0.9-0.8-1.5-2.1-1.7-3.8h13.8c0.1-0.6,0.1-1.2,0.1-1.6
			c0-1.9-0.4-3.6-1.1-5S81.4,46.2,80,45.4L80,45.4z M70.3,52.5c0.2-1.6,0.8-2.7,1.7-3.5c0.9-0.8,2-1.2,3.2-1.2
			c1.4,0,2.5,0.4,3.3,1.3c0.8,0.9,1.2,2,1.2,3.5L70.3,52.5L70.3,52.5z"/>
		<polygon class="st0" points="86.1,37.9 86.1,63.5 90.2,63.5 90.2,40.2 		"/>
	</g>
</g>
</svg>
